<svg width="45" height="45" viewBox="0 0 45 45" fill="none" xmlns="http://www.w3.org/2000/svg">
<path d="M22.5 0C34.9268 0 45 10.0733 45 22.5C45 34.9268 34.9268 45 22.5 45C10.0733 45 0 34.9268 0 22.5C0 10.0733 10.0733 0 22.5 0ZM31.509 24.4755C30.7327 23.2943 30.1725 22.4438 28.0395 22.7812C24.012 23.4202 23.5642 24.1245 23.373 25.2855L23.319 25.6365L23.2627 26.01C23.0445 27.5468 23.0513 28.1273 23.7577 28.8675C26.604 31.8555 28.3095 34.0087 28.827 35.2687C29.079 35.883 29.727 37.7438 29.2815 39.5843C32.012 38.4953 34.4427 36.7696 36.3713 34.551C36.6188 33.7095 36.7987 32.661 36.7987 31.392V31.1558C36.7987 29.0813 36.7987 28.134 35.3317 27.2947C34.8609 27.0262 34.3765 26.7821 33.8805 26.5635C33.0548 26.1877 32.508 25.9425 31.77 24.8625C31.68 24.735 31.593 24.606 31.509 24.4755ZM22.5 4.12425C17.2868 4.12425 12.5775 6.29775 9.234 9.78525C9.63225 10.062 9.97875 10.4513 10.2172 10.9867C10.6762 12.015 10.6762 13.0747 10.6762 14.013C10.6762 14.751 10.6762 15.453 10.9125 15.9593C11.2365 16.6523 12.636 16.9493 13.8713 17.2058C14.3145 17.3003 14.769 17.3947 15.183 17.5095C16.3215 17.8245 17.2035 18.8482 17.9077 19.6695C18.2002 20.0092 18.6345 20.511 18.8527 20.637C18.9653 20.556 19.3275 20.1622 19.5052 19.5165C19.6447 19.0215 19.6042 18.585 19.404 18.3465C18.144 16.8615 18.2137 14.004 18.603 12.9488C19.215 11.286 21.1275 11.4097 22.527 11.4998C23.049 11.5335 23.5395 11.5672 23.9085 11.52C25.308 11.3445 25.74 9.21375 26.0437 8.7975C26.7008 7.8975 28.7122 6.54075 29.9587 5.70375C27.6117 4.65728 25.0698 4.119 22.5 4.12425Z" fill="#D97706"/>
</svg>
